<svg id="Calque_1" data-name="Calque 1" xmlns="http://www.w3.org/2000/svg" viewBox="0 0 404.79 98.17"><defs><style>.cls-1{fill:#2c2c82;}</style></defs><title>nom_camille</title><path class="cls-1" d="M19.84,56.36H31.05V73.73C31.05,81.81,28.33,90,17.42,90H14.89c-11.61,0-14-8.28-14-15.86V28.28c0-7.68,3.33-15,13.63-15h2.63c12.52,0,13.94,8.28,13.94,15.65V42.32H19.84V29.09c0-3.23-1-4.95-3.84-4.95s-3.54,1.62-3.54,4.95V73.73q0,5.15,3.64,5.15c2.73,0,3.74-1.92,3.74-5Z"/><path class="cls-1" d="M52.67,74.94H44.29L42.87,89.08H32.67l9.19-75.14H55.4l9.8,75.14h-11ZM45.5,63.73h6L48.43,36Z"/><polygon class="cls-1" points="67.41 13.94 82.06 13.94 87.51 53.63 93.07 13.94 106.7 13.94 106.7 89.08 96 89.08 96 40.5 89.13 89.08 84.58 89.08 77.61 40.5 77.61 89.08 67.41 89.08 67.41 13.94"/><rect class="cls-1" x="111.35" y="13.94" width="11.41" height="75.14"/><polygon class="cls-1" points="138.82 13.94 138.82 77.47 152.76 77.47 152.76 89.08 127.41 89.08 127.41 13.94 138.82 13.94"/><polygon class="cls-1" points="167.5 13.94 167.5 77.47 181.44 77.47 181.44 89.08 156.09 89.08 156.09 13.94 167.5 13.94"/><polygon class="cls-1" points="210.73 13.94 210.73 24.84 196.19 24.84 196.19 44.54 207.6 44.54 207.6 55.95 196.19 55.95 196.19 77.67 211.34 77.67 211.34 89.08 184.77 89.08 184.77 13.94 210.73 13.94"/><path class="cls-1" d="M216.69,98.17a37.79,37.79,0,0,0,2.12-9.09h-4.34V76.15h10.61v9.49a26.52,26.52,0,0,1-2.73,12.52Z"/><path class="cls-1" d="M237.8,31.51V22.22c6.77-.4,8.89-2.32,10-8.28H257V89.08H245.47V31.51Z"/><path class="cls-1" d="M269.81,62.11c-5.45,0-8.48-5.66-8.48-10.5V27.37c0-7.78,3.53-14.14,13.94-14.14h2.32c10.5,0,13.84,6.16,13.84,14.14V76.86c0,7.68-4.14,13.13-13.13,13.13h-2.52c-9.8,0-13.13-5.35-13.13-13v-9.9h11.82v8.48c0,1.92.4,3.84,2.83,3.84,2.12,0,2.53-1.92,2.53-3.84V55.45c-1.62,2.42-5,6.67-9.7,6.67ZM273,28.68V47c0,3.13,1.11,4.75,3.33,4.75,2.53,0,3.43-1.72,3.43-4.54V28.68c0-2.42-.51-4.65-3.43-4.65S273,26.56,273,28.68"/><path class="cls-1" d="M323.74,74.94h-8.38l-1.41,14.14h-10.2l9.19-75.14h13.53l9.8,75.14h-11Zm-7.17-11.21h6L319.5,36Z"/><polygon class="cls-1" points="348.79 13.94 358.59 54.23 358.59 13.94 368.99 13.94 368.99 89.08 359.7 89.08 348.79 45.85 348.79 89.08 338.49 89.08 338.49 13.94 348.79 13.94"/><path class="cls-1" d="M389.49,13.23c9.39,0,13,4.14,13,13V38.58h-11V27.77c0-2.52-.51-4.44-3.23-4.44s-3.33,1.72-3.33,5.25V30c0,4.24.81,6.57,4.65,11.51l7.27,9.39c5.15,6.67,6.77,10.4,6.77,19v2.42c0,11-4.65,17.57-14.75,17.57h-2.22c-9.19,0-13.94-5-13.94-14.24v-15H384V73.73c0,3.53,1.21,5.25,3.74,5.25,2.73,0,3.74-1.72,3.74-6.46V70.8c0-5.45-.51-7.17-4.65-12.62l-7.27-9.29c-4.85-6.26-6.26-11.11-6.26-18.58V27.88c0-10.1,5.05-14.65,14-14.65Z"/></svg>